<svg width="68" height="16" viewBox="0 0 68 16" fill="none" xmlns="http://www.w3.org/2000/svg">
<path d="M19.9675 0H17.7589V4.6344C17.5508 4.34471 16.7186 3.54 15.2782 3.54C12.8775 3.54 11.3091 5.35864 11.3091 7.96589C11.3091 10.5571 13.0055 12.3757 15.4062 12.3757C16.8306 12.3757 17.6628 11.571 17.8869 11.2974V12.3757H19.9675V0ZM17.8229 7.98199C17.8229 9.3178 17.0227 10.4122 15.6783 10.4122C14.4299 10.4122 13.5337 9.47875 13.5337 7.98199C13.5337 6.51742 14.3979 5.50349 15.6783 5.50349C16.8946 5.50349 17.8229 6.40476 17.8229 7.98199Z" fill="#E52E6B"/>
<path d="M8.65838 3.53592H6.44977V4.63083C6.24172 4.341 5.40949 3.53592 3.96909 3.53592C1.56843 3.53592 0 5.3554 0 7.96386C0 10.5562 1.69647 12.3757 4.09713 12.3757C5.52152 12.3757 6.35375 11.5706 6.57781 11.2969V12.3757H8.65838V3.53592ZM6.51379 7.97996C6.51379 9.3164 5.71357 10.4113 4.3692 10.4113C3.12086 10.4113 2.22461 9.47741 2.22461 7.97996C2.22461 6.51472 3.08885 5.50032 4.3692 5.50032C5.58554 5.50032 6.51379 6.40201 6.51379 7.97996Z" fill="#E52E6B"/>
<path d="M22.6177 7.97996C22.6177 10.524 24.5065 12.3757 27.1156 12.3757C29.7407 12.3757 31.6295 10.524 31.6295 7.97996C31.6295 5.43591 29.6766 3.53592 27.1156 3.53592C24.5705 3.53592 22.6177 5.41981 22.6177 7.97996ZM24.8266 7.97996C24.8266 6.53082 25.787 5.50032 27.1156 5.50032C28.4441 5.50032 29.4205 6.54692 29.4205 7.97996C29.4205 9.41301 28.4441 10.4113 27.1156 10.4113C25.803 10.4113 24.8266 9.41301 24.8266 7.97996Z" fill="#E52E6B"/>
<path d="M34.2803 16H35.0997V10.563C35.3782 11.0823 36.4107 12.3806 38.3444 12.3806C40.737 12.3806 42.4086 10.5305 42.4086 7.93393C42.4086 5.36977 40.6878 3.53592 38.2625 3.53592C36.214 3.53592 35.2963 4.98028 35.0997 5.30486V3.53592H34.2803V16ZM35.0669 7.93393C35.0669 5.95401 36.3123 4.29867 38.2952 4.29867C40.1143 4.29867 41.5564 5.72681 41.5564 7.93393C41.5564 10.0924 40.1798 11.6179 38.328 11.6179C36.5582 11.6179 35.0669 10.2709 35.0669 7.93393Z" fill="#E52E6B"/>
<path d="M45.0591 7.98014C45.0591 10.6077 46.8458 12.3757 49.3085 12.3757C51.1113 12.3757 52.1736 11.4512 52.7209 10.5591L52.1897 10.186C51.7069 10.8673 50.8538 11.6296 49.3085 11.6296C47.3126 11.6296 45.8961 10.332 45.8961 8.09368H53.0107V7.75306C53.0107 5.33632 51.4815 3.53592 49.0832 3.53592C46.9584 3.53592 45.0591 5.22278 45.0591 7.98014ZM45.9444 7.38001C46.1053 5.3201 47.554 4.28203 49.0671 4.28203C50.6445 4.28203 52.0771 5.27144 52.1736 7.38001H45.9444Z" fill="#E52E6B"/>
<path d="M56.6935 4.0177H55.6611V4.7341H56.6935V9.89217C56.6935 11.5638 57.5323 12.3757 58.855 12.3757C59.1614 12.3757 59.5486 12.3439 59.5486 12.3439V11.6275C59.5486 11.6275 59.355 11.6434 59.1776 11.6434C57.9194 11.6434 57.5 11.1817 57.5 9.38273V4.7341H59.5486V4.0177H57.5V2.29834H56.6935V4.0177Z" fill="#E52E6B"/>
<path d="M62.1987 10.4455C62.5271 11.289 63.1839 12.3757 64.9353 12.3757C66.4052 12.3757 67.4998 11.3863 67.4998 9.97517C67.4998 7.08805 63.309 7.83416 63.309 5.66071C63.309 4.76862 64.0283 4.24959 64.904 4.24959C66.0768 4.24959 66.4834 4.94704 66.7023 5.46607L67.3434 5.20656C67.1558 4.54155 66.4677 3.53592 64.9665 3.53592C63.5905 3.53592 62.5428 4.36313 62.5428 5.70937C62.5428 8.48295 66.7336 7.73684 66.7336 10.0076C66.7336 11.0457 65.8891 11.6458 64.9665 11.6458C63.7625 11.6458 63.1839 10.9159 62.8711 10.1698L62.1987 10.4455Z" fill="#E52E6B"/>
</svg>
